#!OML:ASF \\sashay\E\Suitcase\Project 1\Capture day 1\Session 1\Male1.ASF
:FULLY-SPECIFIED
:DEGREES
1159
root -1.58643 17.521 10.2671 7.08538 8.45403 -0.972641
lowerback -1.58858 -1.45486 3.41445
upperback -0.761137 -1.99031 2.41377
thorax 0.0792518 -0.997826 0.530006
lowerneck -15.4131 -1.74787 -3.96372
upperneck 23.2092 0.835433 -8.65487
head 10.0214 -0.962999 -2.27259
rclavicle 3.42904e-015 -1.19271e-014
rhumerus -32.0383 -29.32 -63.5307
rradius 14.7147
rwrist -2.77202
rhand -8.60702 17.623
rfingers 7.12502
rthumb 17.3247 -11.6249
lclavicle 3.42904e-015 -1.19271e-014
lhumerus -38.4586 -5.70985 88.8889
lradius 35.4939
lwrist -4.31944
lhand 0.926356 44.6229
lfingers 7.12502
lthumb 26.4774 72.7932
rfemur -6.45409 -2.27547 25.9172
rtibia 15.4308
rfoot -15.1166 -16.2223
rtoes 16.5718
lfemur -8.18987 -5.21193 -14.2337
ltibia 17.3011
lfoot -14.8439 3.65936
ltoes -0.707293
1160
root -1.57654 17.5187 10.2907 7.21626 8.82001 -0.679159
lowerback -1.73133 -1.5491 3.42565
upperback -0.69911 -2.12587 2.35424
thorax 0.218066 -1.06358 0.455353
lowerneck -15.5517 -1.7878 -4.10589
upperneck 23.2684 0.824196 -8.61609
head 10.0704 -0.98145 -2.24054
rclavicle 4.37326e-015 -5.56597e-015
rhumerus -32.4366 -29.2381 -63.3657
rradius 14.6558
rwrist -2.72509
rhand -8.7158 16.6017
rfingers 7.12502
rthumb 17.22 -12.6553
lclavicle 4.37326e-015 -5.56597e-015
lhumerus -38.1631 -5.87626 88.9953
lradius 35.4008
lwrist -4.3177
lhand 1.50382 44.5394
lfingers 7.12502
lthumb 27.03 72.6252
rfemur -6.46198 -3.49059 25.5664
rtibia 15.5092
rfoot -15.1202 -15.4828
rtoes 15.9527
lfemur -8.20703 -5.39032 -14.5689
ltibia 17.3408
lfoot -14.9928 3.5529
ltoes -1.04686
1161
root -1.5865 17.5136 10.3066 7.30776 8.85072 -0.827877
lowerback -1.62709 -1.60138 3.58077
upperback -0.720363 -2.19138 2.39959
thorax 0.132615 -1.0976 0.418134
lowerneck -15.7043 -1.73799 -3.97936
upperneck 23.326 0.882118 -8.63703
head 10.1212 -0.951842 -2.2656
rclavicle -1.97791e-014 2.54444e-014
rhumerus -33.6516 -31.8624 -61.8017
rradius 14.3546
rwrist 0.401325
rhand -8.94039 17.384
rfingers 7.12502
rthumb 17.0038 -11.8917
lclavicle -1.97791e-014 2.54444e-014
lhumerus -38.2353 -5.65986 88.7394
lradius 35.7294
lwrist -4.18944
lhand 0.97631 44.2236
lfingers 7.12502
lthumb 26.5252 72.3866
rfemur -6.5565 -3.32965 25.8031
rtibia 15.5421
rfoot -15.1669 -15.6991
rtoes 15.7448
lfemur -8.32471 -5.22111 -14.3416
ltibia 17.4376
lfoot -15.1004 3.47953
ltoes -1.61724
1162
root -1.5926 17.5036 10.3261 7.10603 8.82046 -1.14563
lowerback -1.27769 -1.6031 3.95545
upperback -0.750733 -2.1766 2.48064
thorax -0.105134 -1.09411 0.304664
lowerneck -15.5021 -1.74413 -4.00909
upperneck 23.2786 0.850831 -8.59794
head 10.0638 -0.958083 -2.24619
rclavicle 1.68967e-014 -2.38542e-014
rhumerus -34.0826 -31.0903 -61.8925
rradius 14.2038
rwrist -0.0124337
rhand -8.84323 17.0011
rfingers 7.12502
rthumb 17.0973 -12.2666
lclavicle 1.68967e-014 -2.38542e-014
lhumerus -38.4824 -5.71741 88.6781
lradius 36.1164
lwrist -4.12432
lhand 1.00959 44.5496
lfingers 7.12502
lthumb 26.557 72.7078
rfemur -6.40998 -3.1472 26.1998
rtibia 15.7331
rfoot -15.342 -15.8848
rtoes 15.5335
lfemur -8.02998 -5.02153 -13.9662
ltibia 17.3958
lfoot -15.2089 3.43
ltoes -2.33454
1163
root -1.59975 17.4974 10.3508 7.2129 8.73995 -1.10785
lowerback -1.25202 -1.61192 3.94409
upperback -0.850019 -2.18238 2.47436
thorax -0.221412 -1.09946 0.307318
lowerneck -15.2717 -1.73201 -4.01901
upperneck 23.2037 0.842032 -8.58595
head 9.99198 -0.953748 -2.23561
rclavicle 8.94531e-016 -1.27222e-014
rhumerus -34.9431 -32.3001 -60.7665
rradius 13.4369
rwrist 1.83589
rhand -9.01673 17.126
rfingers 7.12502
rthumb 16.9303 -12.1561
lclavicle 8.94531e-016 -1.27222e-014
lhumerus -38.5318 -5.64313 88.6358
lradius 35.9435
lwrist -3.85278
lhand 0.371423 43.7581
lfingers 7.12502
lthumb 25.9461 72.0072
rfemur -6.49328 -3.06158 26.2156
rtibia 15.8578
rfoot -15.4576 -15.9491
rtoes 15.3462
lfemur -8.02244 -4.81457 -13.9677
ltibia 17.4217
lfoot -15.355 3.38873
ltoes -2.98503
1164
root -1.61208 17.4918 10.3674 7.20958 8.75574 -1.15094
lowerback -1.06135 -1.62469 3.92793
upperback -0.879644 -2.18635 2.564
thorax -0.354698 -1.10314 0.414864
lowerneck -15.2219 -1.75949 -4.1315
upperneck 23.1579 0.829776 -8.60464
head 9.96725 -0.968564 -2.22308
rclavicle -3.27995e-014 2.38542e-014
rhumerus -35.1697 -29.4776 -62.1337
rradius 14.2539
rwrist -1.08831
rhand -9.0862 16.6342
rfingers 7.12502
rthumb 16.8635 -12.6536
lclavicle -3.27995e-014 2.38542e-014
lhumerus -38.8343 -5.86182 88.6828
lradius 36.645
lwrist -3.35924
lhand 0.215626 44.4936
lfingers 7.12502
lthumb 25.7969 72.7645
rfemur -6.4776 -2.85123 26.3409
rtibia 15.9479
rfoot -15.5981 -16.2108
rtoes 15.3982
lfemur -7.98547 -4.84426 -13.8637
ltibia 17.4935
lfoot -15.4901 3.42899
ltoes -3.42516
1165
root -1.603 17.4905 10.381 7.3556 9.02216 -1.10904
lowerback -1.14641 -1.77118 4.15305
upperback -0.882683 -2.388 2.55231
thorax -0.324442 -1.20442 0.27415
lowerneck -15.242 -1.69902 -4.00363
upperneck 23.0765 0.907007 -8.7323
head 9.94458 -0.933765 -2.27776
rclavicle -6.26172e-015 9.54166e-015
rhumerus -35.574 -29.5654 -61.8875
rradius 14.1033
rwrist -0.759416
rhand -8.91988 16.0729
rfingers 7.12502
rthumb 17.0236 -13.2012
lclavicle -6.26172e-015 9.54166e-015
lhumerus -38.6129 -5.33078 88.4072
lradius 36.4571
lwrist -3.55818
lhand 0.674627 44.5468
lfingers 7.12502
lthumb 26.2364 72.7531
rfemur -6.65999 -3.56136 26.285
rtibia 16.1689
rfoot -15.7108 -15.8184
rtoes 15.2529
lfemur -8.07001 -4.95644 -13.9049
ltibia 17.4778
lfoot -15.6211 3.26857
ltoes -3.55912
1166
root -1.60871 17.4858 10.3898 7.42845 9.16997 -1.28116
lowerback -1.13844 -1.84532 4.37344
upperback -0.786355 -2.49206 2.6568
thorax -0.2376 -1.25463 0.256494
lowerneck -15.6303 -1.66189 -3.89823
upperneck 23.1007 0.995291 -8.85678
head 10.0317 -0.908024 -2.33504
rclavicle 8.24956e-015 -1.59028e-014
rhumerus -36.0078 -29.4849 -61.7706
rradius 14.1537
rwrist -0.455994
rhand -9.02331 16.2656
rfingers 7.12502
rthumb 16.924 -13.017
lclavicle 8.24956e-015 -1.59028e-014
lhumerus -38.3424 -5.38703 88.4095
lradius 36.49
lwrist -3.26861
lhand 1.34384 44.6154
lfingers 7.12502
lthumb 26.8769 72.7248
rfemur -6.78814 -3.59255 26.5386
rtibia 16.2936
rfoot -15.8193 -15.9379
rtoes 15.445
lfemur -8.14454 -4.9302 -13.643
ltibia 17.4409
lfoot -15.7279 3.01607
ltoes -3.40523
1167
root -1.64267 17.4809 10.4074 7.65083 8.88498 -1.10748
lowerback -1.18456 -1.76652 3.83749
upperback -0.828582 -2.38413 2.71324
thorax -0.227399 -1.19912 0.611757
lowerneck -15.6808 -1.65243 -3.87489
upperneck 23.1301 1.02221 -8.90875
head 10.0535 -0.901881 -2.35559
rclavicle 2.50469e-014 -2.06736e-014
rhumerus -36.4947 -29.5486 -61.4946
rradius 13.8141
rwrist -0.29782
rhand -9.22029 16.1397
rfingers 7.12502
rthumb 16.7344 -13.1591
lclavicle 2.50469e-014 -2.06736e-014
lhumerus -38.4522 -5.34892 88.3746
lradius 36.7137
lwrist -3.36811
lhand 1.59546 44.6701
lfingers 7.12502
lthumb 27.1176 72.7422
rfemur -6.99825 -2.43006 26.5233
rtibia 16.3344
rfoot -15.9638 -16.8102
rtoes 16.0629
lfemur -8.26404 -4.82062 -13.6775
ltibia 17.3532
lfoot -15.7635 2.98085
ltoes -3.05182
1168
root -1.64239 17.4798 10.4449 7.70496 8.86581 -1.00835
lowerback -1.36216 -1.79431 3.86251
upperback -0.736349 -2.43622 2.67238
thorax -0.0369152 -1.22216 0.547263
lowerneck -15.8878 -1.61788 -3.74405
upperneck 23.1752 1.0798 -9.00472
head 10.1118 -0.881637 -2.40874
rclavicle -2.15681e-014 -1.43125e-014
rhumerus -37.1446 -29.9672 -61.0147
rradius 13.7549
rwrist 0.363313
rhand -9.27912 16.318
rfingers 7.12502
rthumb 16.6777 -12.9856
lclavicle -2.15681e-014 -1.43125e-014
lhumerus -38.2612 -5.53467 88.3716
lradius 36.6103
lwrist -3.01679
lhand 1.52813 45.0211
lfingers 7.12502
lthumb 27.0532 73.1033
rfemur -6.84783 -2.69112 26.4187
rtibia 16.2441
rfoot -16.0062 -16.6059
rtoes 16.1056
lfemur -8.15161 -4.97832 -13.7687
ltibia 17.3712
lfoot -15.9855 2.95789
ltoes -2.46619
1169
root -1.6542 17.4807 10.4835 7.7663 8.87653 -0.970882
lowerback -1.43899 -1.90593 3.79611
upperback -0.850179 -2.58381 2.62446
thorax -0.112724 -1.29777 0.533413
lowerneck -15.358 -1.48357 -3.38591
upperneck 23.0198 1.16316 -9.18613
head 9.95556 -0.814333 -2.50923
rclavicle 4.1546e-014 -8.74653e-015
rhumerus -38.001 -30.2702 -60.4461
rradius 13.5825
rwrist 1.39821
rhand -8.8854 15.5661
rfingers 7.12502
rthumb 17.0567 -13.7051
lclavicle 4.1546e-014 -8.74653e-015
lhumerus -38.6985 -5.17859 88.0062
lradius 36.8743
lwrist -3.15457
lhand 1.74289 44.9005
lfingers 7.12502
lthumb 27.2587 72.9506
rfemur -6.69013 -2.50295 26.4553
rtibia 16.0899
rfoot -16.1285 -16.8435
rtoes 16.3617
lfemur -8.0628 -5.17527 -13.7205
ltibia 17.2924
lfoot -16.0968 2.87487
ltoes -1.54908
1170
root -1.6537 17.4834 10.4834 7.78716 8.90971 -1.19899
lowerback -1.15156 -1.85505 4.18094
upperback -0.824525 -2.5027 2.7499
thorax -0.257184 -1.25976 0.459032
lowerneck -15.4013 -1.56485 -3.59551
upperneck 22.928 1.10644 -9.21259
head 9.93156 -0.858972 -2.48892
rclavicle 6.75868e-015 -1.43125e-014
rhumerus -38.6683 -31.4076 -59.2957
rradius 13.3351
rwrist 2.79465
rhand -9.23884 15.6063
rfingers 7.12502
rthumb 16.7165 -13.6939
lclavicle 6.75868e-015 -1.43125e-014
lhumerus -38.4574 -5.59934 88.2302
lradius 36.8069
lwrist -2.75088
lhand 2.21679 45.1933
lfingers 7.12502
lthumb 27.7119 73.1713
rfemur -6.55641 -2.51687 26.7265
rtibia 15.7099
rfoot -15.9706 -16.9083
rtoes 16.3979
lfemur -8.19003 -5.24111 -13.4135
ltibia 17.3408
lfoot -16.0983 2.64307
ltoes -0.327569
